<svg xmlns="http://www.w3.org/2000/svg" width="20.01" height="17.835" viewBox="0 0 20.01 17.835">
  <path id="Vector" d="M9.25,2.17V14.06a2.056,2.056,0,0,1-1.76,1.98l-.31.04a25.606,25.606,0,0,0-5.81,1.68A1,1,0,0,1,0,16.83V2.92a1.02,1.02,0,0,1,.54-.89A19.189,19.189,0,0,1,7.02,0h.06A2.168,2.168,0,0,1,9.25,2.17Z" transform="translate(10.76 0)" fill="#0090ff"/>
  <path id="Vector-2" data-name="Vector" d="M9.25,2.92V16.83a1,1,0,0,1-1.37.93,25.606,25.606,0,0,0-5.81-1.68l-.31-.04A2.056,2.056,0,0,1,0,14.06V2.17A2.168,2.168,0,0,1,2.17,0h.07A19.189,19.189,0,0,1,8.72,2.03a1,1,0,0,1,.53.89ZM2.26,5.81a.749.749,0,0,0,.75.75H5.26a.75.75,0,0,0,0-1.5H3.01a.755.755,0,0,0-.75.75Zm4.5,3a.755.755,0,0,0-.75-.75h-3a.75.75,0,0,0,0,1.5h3A.749.749,0,0,0,6.76,8.81Z" transform="translate(0 0)" fill="#0090ff"/>
</svg>
