<svg id="Mejora" xmlns="http://www.w3.org/2000/svg" xmlns:xlink="http://www.w3.org/1999/xlink" width="28.427" height="24" viewBox="0 0 28.427 24">
  <defs>
    <clipPath id="clip-path">
      <rect id="Rectángulo_10" data-name="Rectángulo 10" width="28.427" height="24" fill="#f9b959"/>
    </clipPath>
  </defs>
  <g id="Grupo_33" data-name="Grupo 33" clip-path="url(#clip-path)">
    <path id="Trazado_60" data-name="Trazado 60" d="M28.378,17.668a5.586,5.586,0,0,0-4.3-4.744c-.267-.062-.539-.1-.778-.146-.161-5.626-2.85-9.443-8.06-11.513.053-.2.11-.417.164-.632.112-.446-.15-.722-.587-.607q-1.755.462-3.506.938a.446.446,0,0,0-.22.8q1.278,1.292,2.571,2.57c.322.318.688.207.816-.233.053-.182.1-.366.151-.558.067.017.1.024.137.036a9.351,9.351,0,0,1,6.18,9.337c-.011.168-.094.211-.221.263a5.588,5.588,0,0,0-3.4,6.293.351.351,0,0,1-.159.413A9.144,9.144,0,0,1,9.8,21.512a9.2,9.2,0,0,1-7.459-8.559A9.06,9.06,0,0,1,6.982,4.286,8.526,8.526,0,0,1,9.821,3.219a.46.46,0,0,0,.425-.612Q10.124,2,10,1.385c-.077-.371-.266-.491-.641-.413a11.625,11.625,0,1,0,8.759,21.046c.089-.06.179-.117.272-.178.076.087.13.15.186.211a5.416,5.416,0,0,0,5.488,1.791,5.421,5.421,0,0,0,4.177-4.018c.086-.29.127-.594.189-.891v-1.11a.894.894,0,0,1-.049-.154M17.021,3.7a9.543,9.543,0,0,0-2.36-1.084c-.516-.161-.669-.075-.824.451-.01.035-.02.07-.026.092L12.268,1.623l2.1-.566c-.033.132-.059.234-.084.336a.47.47,0,0,0,.378.668,10.775,10.775,0,0,1,7.705,10.564c0,.046-.007.091-.014.166l-.5.057c-.028-.541-.025-1.059-.086-1.57A10.058,10.058,0,0,0,17.021,3.7M6.606,21.872A10.735,10.735,0,0,1,9.211,1.918l.093.489A10.142,10.142,0,0,0,2.059,8.854a9.858,9.858,0,0,0,.364,7.919,9.922,9.922,0,0,0,3.953,4.348,10,10,0,0,0,5.72,1.445,10.163,10.163,0,0,0,5.555-1.948.9.9,0,0,1,.055.084c.06.123.119.247.177.368a10.7,10.7,0,0,1-11.278.8m16.213,1.236a4.725,4.725,0,1,1,4.724-4.725,4.71,4.71,0,0,1-4.724,4.725" transform="translate(0 0)" fill="#f9b959"/>
    <path id="Trazado_61" data-name="Trazado 61" d="M73.78,79.159c-.115.162-.414.193-.63.286-.236.1-.493.326-.7.284-.222-.046-.391-.339-.587-.52a.441.441,0,0,0-.684,0q-.636.62-1.256,1.255a.43.43,0,0,0,0,.682c.186.192.388.368.582.55-.108.224-.207.41-.288.6-.1.246-.122.6-.3.722s-.53.047-.8.063a.433.433,0,0,0-.467.472q-.013.9,0,1.8a.431.431,0,0,0,.463.475c.221.011.445-.007.665.009a.278.278,0,0,1,.2.126c.171.406.325.82.506,1.285-.152.14-.34.3-.516.48a.456.456,0,0,0,0,.762q.574.583,1.157,1.158a.484.484,0,0,0,.807,0c.165-.161.313-.424.5-.456s.427.158.645.245c.239.1.58.118.694.292.125.19.039.517.048.784a.437.437,0,0,0,.483.483q.888.013,1.775,0a.441.441,0,0,0,.476-.491c.005-.267,0-.534,0-.777l1.41-.585c.171.181.348.383.54.569a.43.43,0,0,0,.643.022q.669-.645,1.315-1.313a.423.423,0,0,0-.011-.642c-.068-.076-.143-.145-.215-.217-.36-.36-.36-.36-.152-.809a.951.951,0,0,0,.11-.253c.078-.6.428-.751.991-.681.378.047.535-.147.537-.532q0-.832,0-1.665c0-.4-.154-.542-.56-.547-.231,0-.521.077-.676-.033s-.192-.414-.285-.63c-.1-.235-.319-.489-.28-.7s.331-.375.508-.563a.441.441,0,0,0,0-.7q-.61-.626-1.235-1.236a.446.446,0,0,0-.722.015c-.181.183-.344.384-.488.545l-1.431-.6c0-.243,0-.492,0-.741-.006-.365-.161-.521-.527-.523-.546,0-1.091,0-1.637,0-.425,0-.567.142-.572.561,0,.231.078.521-.032.677m.517.856a.445.445,0,0,0,.387-.47c0-.238,0-.476,0-.728h.981c0,.217,0,.435,0,.652.006.349.125.449.45.565a16.162,16.162,0,0,1,1.526.633c.326.155.461.172.714-.082.15-.15.286-.313.428-.469l.735.776c-.135.114-.319.251-.481.41a.452.452,0,0,0-.072.668,4.727,4.727,0,0,1,.653,1.578.455.455,0,0,0,.524.421c.22,0,.439,0,.675,0v.991c-.241,0-.47,0-.7,0a.442.442,0,0,0-.493.386A4.779,4.779,0,0,1,78.941,87a.439.439,0,0,0,.074.6c.166.16.34.313.5.462l-.781.741c-.1-.125-.236-.311-.394-.474a.438.438,0,0,0-.663-.083,4.635,4.635,0,0,1-1.6.661.47.47,0,0,0-.41.51c0,.221,0,.443,0,.686h-.98c0-.222,0-.441,0-.659-.008-.346-.115-.432-.433-.548-.526-.191-1.045-.407-1.551-.645-.309-.145-.45-.161-.692.08-.157.156-.3.327-.45.5l-.73-.736.494-.469a.457.457,0,0,0,.081-.646,4.757,4.757,0,0,1-.67-1.6c-.072-.32-.2-.411-.525-.415-.22,0-.439,0-.677,0v-.991c.236,0,.464,0,.692,0a.457.457,0,0,0,.508-.4,4.642,4.642,0,0,1,.678-1.626.439.439,0,0,0-.06-.6c-.168-.169-.345-.329-.525-.5l.757-.726c.137.156.285.332.442.5a.453.453,0,0,0,.645.077,4.514,4.514,0,0,1,1.628-.672" transform="translate(-63.548 -72.141)" fill="#f9b959"/>
    <path id="Trazado_62" data-name="Trazado 62" d="M263.093,205.106c-.3-.3-.5-.294-.8,0q-1.482,1.479-2.96,2.963a1.908,1.908,0,0,0-.186.269c-.336-.341-.611-.628-.9-.905a.451.451,0,0,0-.7-.006q-.439.423-.863.863a.454.454,0,0,0,0,.726q1.025,1.034,2.059,2.059a.452.452,0,0,0,.725.007q2.229-2.223,4.452-4.452a.442.442,0,0,0,0-.7c-.27-.279-.546-.552-.822-.825m-4,5.008-1.5-1.483.356-.323c.181.2.361.425.561.627.572.581.629.578,1.2.011q1.383-1.383,2.764-2.768a1.98,1.98,0,0,0,.191-.279l.3.349-3.868,3.866" transform="translate(-237.478 -189.691)" fill="#f9b959"/>
    <path id="Trazado_63" data-name="Trazado 63" d="M112.446,125.407a3.551,3.551,0,1,0-3.472-3.593,3.55,3.55,0,0,0,3.472,3.593m.08-6.216a2.666,2.666,0,1,1-2.673,2.654,2.658,2.658,0,0,1,2.673-2.654" transform="translate(-100.892 -109.534)" fill="#f9b959"/>
  </g>
</svg>
