<svg id="Grupo_949" data-name="Grupo 949" xmlns="http://www.w3.org/2000/svg" xmlns:xlink="http://www.w3.org/1999/xlink" width="17.478" height="20" viewBox="0 0 17.478 20">
  <defs>
    <clipPath id="clip-path">
      <rect id="Rectángulo_9" data-name="Rectángulo 9" width="17.478" height="20" fill="#008ffe"/>
    </clipPath>
  </defs>
  <g id="Grupo_28" data-name="Grupo 28" clip-path="url(#clip-path)">
    <path id="Trazado_54" data-name="Trazado 54" d="M11.369,0A4.663,4.663,0,0,1,12.2.358a1.678,1.678,0,0,1,.693,1.481h.446A1.315,1.315,0,0,1,14.8,3.295q0,3.27,0,6.541a.3.3,0,0,0,.178.3,9.1,9.1,0,0,1,2.106,1.631,1.259,1.259,0,0,1,0,1.831,9.031,9.031,0,0,1-2.107,1.63.311.311,0,0,0-.178.322c.006,1,0,2,0,3.007A1.306,1.306,0,0,1,13.36,20c-2.435,0-4.869,0-7.3,0a2.593,2.593,0,0,1-1.917-.77c-.481-.476-.972-.943-1.466-1.406a.471.471,0,0,0-.27-.11,7.894,7.894,0,0,1-1.068-.059A1.67,1.67,0,0,1,0,15.98c-.005-.273,0-.547,0-.82Q0,8.492,0,1.825A1.7,1.7,0,0,1,.972.178,3.654,3.654,0,0,1,1.525,0Zm2.652,9.655V9.449q0-3.1,0-6.19c0-.449-.19-.638-.64-.638H3.342c-.463,0-.645.184-.645.65q0,3.671,0,7.342c0,.3-.161.483-.4.477s-.381-.188-.381-.475c0-2.48,0-4.96.005-7.44a1.46,1.46,0,0,1,.13-.6,1.281,1.281,0,0,1,1.272-.734q4.267,0,8.535,0H12.1A.939.939,0,0,0,11.09.782H1.832A.943.943,0,0,0,.783,1.83q0,7.02,0,14.04a.975.975,0,0,0,1.257,1.039,5.419,5.419,0,0,1-.116-.746c-.016-.761-.007-1.523-.006-2.284a.545.545,0,0,1,.027-.172.362.362,0,0,1,.369-.264.354.354,0,0,1,.352.259.838.838,0,0,1,.03.25c0,.677,0,1.354,0,2.031,0,.069.006.138.009.223h.229c.592,0,1.185,0,1.777,0a1.021,1.021,0,0,1,1.12,1.112c0,.56,0,1.12,0,1.679v.211c.073,0,.119.009.164.009q3.73,0,7.461,0a.514.514,0,0,0,.562-.556c0-.937,0-1.875,0-2.812,0-.037-.006-.074-.011-.13-.1.033-.184.059-.268.09a7.893,7.893,0,0,1-3.7.464,8.561,8.561,0,0,1-5.31-2.67,1.249,1.249,0,0,1,0-1.831,8.942,8.942,0,0,1,.711-.668,8.262,8.262,0,0,1,7.614-1.763c.319.08.627.2.965.314m-3.111.182a2.852,2.852,0,1,0,2.847,2.856A2.856,2.856,0,0,0,10.91,9.837m-2.876.6a.176.176,0,0,0-.051,0,8.2,8.2,0,0,0-2.7,1.884.486.486,0,0,0,.015.742,8.139,8.139,0,0,0,1.834,1.442c.277.16.569.294.855.439a3.774,3.774,0,0,1,.047-4.508m5.776-.032a3.774,3.774,0,0,1-.03,4.533.112.112,0,0,0,.039,0,8.264,8.264,0,0,0,2.741-1.922.472.472,0,0,0-.019-.683,8.338,8.338,0,0,0-1.709-1.38c-.33-.2-.681-.366-1.022-.548M3.035,16.987,3,17.041c.667.64,1.315,1.3,2.051,1.944,0-.628,0-1.187,0-1.746a.23.23,0,0,0-.258-.252H3.035" transform="translate(0)" fill="#008ffe"/>
    <path id="Trazado_55" data-name="Trazado 55" d="M111.878,104.591q-1.66,0-3.32,0c-.314,0-.514-.183-.476-.433a.372.372,0,0,1,.31-.333,1.058,1.058,0,0,1,.214-.014h6.679c.27.009.443.165.44.395a.4.4,0,0,1-.449.385q-1.7,0-3.4,0" transform="translate(-103.849 -99.748)" fill="#008ffe"/>
    <path id="Trazado_56" data-name="Trazado 56" d="M110.939,159.5H108.6a1.279,1.279,0,0,1-.195-.008.385.385,0,0,1,.008-.767.938.938,0,0,1,.136-.006h4.765c.258,0,.414.091.47.269a.4.4,0,0,1-.42.511c-.566.005-1.133,0-1.7,0h-.723" transform="translate(-103.827 -152.508)" fill="#008ffe"/>
    <path id="Trazado_57" data-name="Trazado 57" d="M109.5,213.6c.332,0,.663,0,.995,0,.287,0,.457.156.452.4s-.172.38-.449.381q-.995,0-1.99,0c-.279,0-.464-.167-.457-.4a.407.407,0,0,1,.455-.381c.332,0,.663,0,.995,0" transform="translate(-103.824 -205.242)" fill="#008ffe"/>
    <path id="Trazado_58" data-name="Trazado 58" d="M49.384,304.294a.389.389,0,1,1,.4-.376.394.394,0,0,1-.4.376" transform="translate(-47.086 -291.641)" fill="#008ffe"/>
    <path id="Trazado_59" data-name="Trazado 59" d="M230.236,277.572a1.978,1.978,0,0,1,0-3.956,1.978,1.978,0,1,1,0,3.956m0-.783a1.2,1.2,0,0,0,1.2-1.19,1.216,1.216,0,0,0-1.191-1.2,1.2,1.2,0,0,0-1.2,1.206,1.191,1.191,0,0,0,1.2,1.185" transform="translate(-219.331 -262.91)" fill="#008ffe"/>
  </g>
</svg>
