<svg xmlns="http://www.w3.org/2000/svg" xmlns:xlink="http://www.w3.org/1999/xlink" width="23.997" height="24" viewBox="0 0 23.997 24">
  <defs>
    <clipPath id="clip-path">
      <rect id="Rectángulo_8" data-name="Rectángulo 8" width="23.997" height="24" fill="#729854"/>
    </clipPath>
  </defs>
  <g id="Grupo_15" data-name="Grupo 15" clip-path="url(#clip-path)">
    <path id="Trazado_48" data-name="Trazado 48" d="M106.085,98.324a2.844,2.844,0,0,1-.161.3c-.149.211-.3.424-.466.618-.119.137-.088.247-.044.4a.6.6,0,0,0,.668.509,2.891,2.891,0,0,1,.568.08.392.392,0,0,1,.359.411c0,.525.006,1.049,0,1.574a.4.4,0,0,1-.384.414c-.28.041-.559.087-.84.119-.142.016-.2.093-.266.212a.668.668,0,0,0,.136.92,2.982,2.982,0,0,1,.3.4.4.4,0,0,1-.039.563q-.543.552-1.1,1.1a.4.4,0,0,1-.564.035c-.221-.163-.447-.321-.658-.5a.357.357,0,0,0-.38-.051.636.636,0,0,0-.537.7,3.274,3.274,0,0,1-.071.519.4.4,0,0,1-.416.382q-.787.009-1.574,0a.4.4,0,0,1-.412-.386c-.04-.28-.086-.56-.118-.841-.016-.143-.1-.2-.214-.265a.668.668,0,0,0-.919.138,3,3,0,0,1-.4.3.4.4,0,0,1-.563-.041q-.551-.544-1.1-1.1a.4.4,0,0,1-.033-.563c.163-.221.321-.447.5-.658a.36.36,0,0,0,.052-.381.638.638,0,0,0-.7-.538,3.383,3.383,0,0,1-.519-.068.4.4,0,0,1-.381-.416c-.006-.525-.006-1.049,0-1.574a.393.393,0,0,1,.386-.411c.264-.036.527-.079.791-.108a.389.389,0,0,0,.324-.246A.647.647,0,0,0,97.185,99a3.334,3.334,0,0,1-.317-.417.4.4,0,0,1,.039-.563q.544-.551,1.1-1.1a.393.393,0,0,1,.563-.036c.221.163.446.321.658.5a.363.363,0,0,0,.38.055.637.637,0,0,0,.536-.7,2.994,2.994,0,0,1,.075-.543.39.39,0,0,1,.411-.359c.525,0,1.049-.006,1.574,0a.4.4,0,0,1,.413.384c.039.272.08.543.113.816a.351.351,0,0,0,.217.29.675.675,0,0,0,.92-.134,3.014,3.014,0,0,1,.4-.3.393.393,0,0,1,.563.037c.368.363.735.726,1.093,1.1a1.385,1.385,0,0,1,.17.3m-.975,6.16c-.18-.241-.356-.483-.54-.719a.471.471,0,0,1-.052-.534c.132-.286.254-.577.363-.873a.463.463,0,0,1,.411-.342c.3-.036.6-.089.909-.135v-.9c-.312-.047-.615-.1-.92-.137a.462.462,0,0,1-.4-.351,7.732,7.732,0,0,0-.34-.828.5.5,0,0,1,.055-.6c.182-.226.349-.465.5-.669l-.628-.664c-.24.179-.482.356-.718.539a.472.472,0,0,1-.535.052c-.286-.132-.577-.254-.872-.363A.464.464,0,0,1,102,97.55c-.037-.3-.09-.6-.136-.909h-.9c-.047.312-.1.615-.138.92a.463.463,0,0,1-.351.4,7.863,7.863,0,0,0-.828.341.5.5,0,0,1-.6-.056c-.226-.182-.465-.349-.67-.5l-.661.632c.177.237.354.479.537.715a.472.472,0,0,1,.051.535c-.132.286-.254.577-.363.873a.464.464,0,0,1-.411.342c-.3.037-.6.09-.908.137v.9c.313.048.616.1.921.138a.464.464,0,0,1,.4.351c.106.288.221.573.353.85a.483.483,0,0,1-.052.556c-.184.236-.36.478-.517.688l.631.663c.238-.178.48-.353.716-.537a.47.47,0,0,1,.534-.051c.286.132.577.254.873.362a.463.463,0,0,1,.342.411c.037.3.09.6.136.908h.9c.047-.313.1-.616.137-.921a.462.462,0,0,1,.351-.4,7.609,7.609,0,0,0,.828-.341.5.5,0,0,1,.6.055c.227.181.465.349.7.525l.633-.65" transform="translate(-89.413 -89.43)" fill="#729854"/>
    <path id="Trazado_49" data-name="Trazado 49" d="M236.388,38.974l1.135,1.362,1.1-1.322c-.024-.025-.034-.046-.044-.045-.6.028-.638-.2-.67-.7a9.915,9.915,0,0,0-6.185-8.958c-.1-.047-.211-.087-.338-.138l.263-.713a10.813,10.813,0,0,1,7.083,9.7c.238,0,.477,0,.717,0a.412.412,0,0,1,.332.715c-.635.761-1.268,1.524-1.9,2.283a.409.409,0,0,1-.711,0c-.637-.76-1.269-1.523-1.9-2.283a.412.412,0,0,1,.332-.715c.231,0,.463,0,.737,0a8.543,8.543,0,0,0-4.956-7.287c.047-.11.1-.23.149-.348s.1-.226.17-.367c.25.128.5.239.731.377a9.134,9.134,0,0,1,4.694,7.816c.025.495-.092.6-.586.61-.033,0-.065,0-.145.011" transform="translate(-215.925 -26.561)" fill="#729854"/>
    <path id="Trazado_50" data-name="Trazado 50" d="M149.9,231.34l.754.279a11,11,0,0,1-9.762,7.076c0,.23,0,.47,0,.71a.414.414,0,0,1-.243.426.407.407,0,0,1-.46-.092q-1.152-.96-2.3-1.921a.4.4,0,0,1,0-.695c.765-.643,1.535-1.281,2.3-1.921a.409.409,0,0,1,.481-.089.426.426,0,0,1,.227.437c0,.231,0,.462,0,.728a8.533,8.533,0,0,0,7.285-4.964l.708.319a8.927,8.927,0,0,1-1.936,2.784,9.149,9.149,0,0,1-6.113,2.645c-.655.032-.717-.033-.756-.727l-1.362,1.133,1.346,1.121c.1-.7.105-.673.851-.732a9.935,9.935,0,0,0,8.857-6.263c.027-.061.049-.124.076-.185a.565.565,0,0,1,.053-.071" transform="translate(-128.494 -215.868)" fill="#729854"/>
    <path id="Trazado_51" data-name="Trazado 51" d="M29.993,8.554l-.707-.32a8.948,8.948,0,0,1,2.044-2.887,9.145,9.145,0,0,1,6.006-2.54c.654-.032.714.033.755.726L39.454,2.4,38.107,1.277c-.1.7-.1.677-.827.733a9.927,9.927,0,0,0-8.861,6.22c-.04.09-.077.182-.128.3l-.774-.284a11,11,0,0,1,9.762-7.076c0-.232,0-.472,0-.712a.413.413,0,0,1,.243-.425.407.407,0,0,1,.46.093q1.151.96,2.3,1.921a.4.4,0,0,1,0,.7c-.765.643-1.535,1.28-2.3,1.921a.409.409,0,0,1-.482.088.426.426,0,0,1-.226-.437c.005-.231,0-.462,0-.728a8.537,8.537,0,0,0-7.285,4.964" transform="translate(-25.68 0)" fill="#729854"/>
    <path id="Trazado_52" data-name="Trazado 52" d="M1.194,141.043c-.256,0-.5,0-.736,0a.409.409,0,0,1-.325-.706q.953-1.141,1.9-2.283a.422.422,0,0,1,.732.007q.947,1.13,1.888,2.264a.419.419,0,0,1,.1.48.431.431,0,0,1-.454.238c-.223-.005-.447,0-.713,0a8.485,8.485,0,0,0,4.576,7.1l-.354.7c-.272-.158-.538-.294-.784-.459a9.082,9.082,0,0,1-4.225-7.4c-.037-.66.02-.706.725-.759L2.4,138.869l-1.131,1.355c.091.008.151.018.211.019.39.007.514.133.519.532a9.675,9.675,0,0,0,.63,3.368,9.894,9.894,0,0,0,5.295,5.634l.226.1-.3.709a10.743,10.743,0,0,1-6.663-9.546" transform="translate(0 -128.643)" fill="#729854"/>
    <path id="Trazado_53" data-name="Trazado 53" d="M148.565,146.2a2.4,2.4,0,1,1-2.383-2.415,2.4,2.4,0,0,1,2.383,2.415m-.8-.009a1.6,1.6,0,1,0-1.612,1.593,1.6,1.6,0,0,0,1.612-1.593" transform="translate(-134.167 -134.179)" fill="#729854"/>
  </g>
</svg>
