<svg id="Grupo_979" data-name="Grupo 979" xmlns="http://www.w3.org/2000/svg" xmlns:xlink="http://www.w3.org/1999/xlink" width="23.958" height="24" viewBox="0 0 23.958 24">
  <defs>
    <clipPath id="clip-path">
      <rect id="Rectángulo_177" data-name="Rectángulo 177" width="23.958" height="24" fill="#0090ff"/>
    </clipPath>
  </defs>
  <g id="Grupo_978" data-name="Grupo 978" clip-path="url(#clip-path)">
    <path id="Trazado_2221" data-name="Trazado 2221" d="M0,124.625c0-1.062,0-2.124,0-3.186a3.487,3.487,0,0,1,6.919-.706,4.355,4.355,0,0,1,.052.86c-.009.207.043.258.241.153,1.149-.613,2.306-1.212,3.454-1.828a1.8,1.8,0,0,1,1.194-.218.311.311,0,0,0,.366-.179q1.066-1.672,2.139-3.339l2.156-3.361a.892.892,0,0,1,1.644.291.963.963,0,0,1-.185.738q-1.932,3.008-3.861,6.018c-.155.242-.3.491-.468.725a2.26,2.26,0,0,0-.431,1.081,1.508,1.508,0,0,1-.843,1.183q-2.339,1.255-4.683,2.5a1.872,1.872,0,0,1-.475.185c-.2.043-.252.15-.25.341.009.684,0,1.368,0,2.052,0,.349-.009.359-.368.359H.355c-.338,0-.353-.015-.353-.348q0-1.66,0-3.321" transform="translate(0 -104.294)" fill="#0090ff"/>
    <path id="Trazado_2222" data-name="Trazado 2222" d="M61.994,1.808H55.257a1.44,1.44,0,0,0-1.571,1.578c0,.513,0,1.026,0,1.539a.88.88,0,1,1-1.759,0,15.1,15.1,0,0,1,.031-2.184A3.152,3.152,0,0,1,55.121.012q6.9-.023,13.8,0A3.188,3.188,0,0,1,72.1,3.226q.028,3.442,0,6.885a3.179,3.179,0,0,1-3.259,3.206c-.368,0-.737,0-1.1,0a.882.882,0,0,1-.007-1.764,9.631,9.631,0,0,0,1.425-.043,1.373,1.373,0,0,0,1.152-1.365q.009-3.47,0-6.939a1.383,1.383,0,0,0-1.441-1.4q-3.436-.006-6.872,0" transform="translate(-48.161 0.001)" fill="#0090ff"/>
    <path id="Trazado_2223" data-name="Trazado 2223" d="M121.463,64.4q2.29,0,4.579,0a.874.874,0,0,1,.858.649.889.889,0,0,1-.386.985.832.832,0,0,1-.46.13q-4.606,0-9.212,0a.881.881,0,1,1,.015-1.762c1.535,0,3.071,0,4.606,0" transform="translate(-107.599 -59.757)" fill="#0090ff"/>
    <path id="Trazado_2224" data-name="Trazado 2224" d="M16.3,110.469a2.34,2.34,0,0,1,2.327-2.341,2.376,2.376,0,0,1,2.33,2.356,2.34,2.34,0,0,1-2.332,2.31,2.3,2.3,0,0,1-2.325-2.325" transform="translate(-15.128 -100.34)" fill="#0090ff"/>
    <path id="Trazado_2225" data-name="Trazado 2225" d="M119.171,112.389c.745,0,1.489,0,2.234,0a.883.883,0,1,1,.009,1.764q-2.275,0-4.549,0a.882.882,0,1,1-.01-1.763c.772,0,1.543,0,2.315,0" transform="translate(-107.599 -104.294)" fill="#0090ff"/>
  </g>
</svg>
