<svg xmlns="http://www.w3.org/2000/svg" width="16.718" height="24" viewBox="0 0 16.718 24">
  <g id="Grupo_1010" data-name="Grupo 1010" transform="translate(-1077.798 -256.48)">
    <path id="Trazado_37" data-name="Trazado 37" d="M16.719,12q0,5.279,0,10.557a1.357,1.357,0,0,1-1.054,1.4,1.889,1.889,0,0,1-.426.036Q8.36,24,1.481,24A1.365,1.365,0,0,1,0,22.509Q0,12,0,1.49A1.364,1.364,0,0,1,1.482,0Q8.36,0,15.238,0A1.365,1.365,0,0,1,16.718,1.49q0,5.255,0,10.51m-.745.024V3.163c0-.581.005-1.162,0-1.744a.625.625,0,0,0-.686-.682H1.53a1.492,1.492,0,0,0-.285.02.587.587,0,0,0-.49.541c-.01.1-.009.207-.009.31q0,10.39,0,20.78a2.866,2.866,0,0,0,.012.334.575.575,0,0,0,.463.511,1.73,1.73,0,0,0,.355.027H15.118c.664,0,.856-.19.856-.848q0-5.2,0-10.39" transform="translate(1077.797 256.48)" fill="#263fc7"/>
    <g id="Grupo_1009" data-name="Grupo 1009">
      <path id="Trazado_38" data-name="Trazado 38" d="M83.912,268.122c.436-.373.851-.731,1.272-1.082a.363.363,0,0,1,.217-.067q3.594,0,7.187,0a1.417,1.417,0,0,1,.15.017v2.268c-.089,0-.173.012-.257.012-2.332,0-4.664,0-7-.006a.7.7,0,0,1-.4-.146c-.392-.312-.766-.646-1.172-.993m3.556-.367c-.58,0-1.161,0-1.741,0a.352.352,0,0,0-.392.356.357.357,0,0,0,.4.374c1.153,0,2.305.005,3.458-.006a.444.444,0,0,0,.318-.158.379.379,0,0,0,.029-.345.526.526,0,0,0-.355-.213c-.572-.022-1.144-.01-1.717-.01" transform="translate(999.239 6.543)" fill="#263fc7"/>
      <path id="Trazado_39" data-name="Trazado 39" d="M83.935,202.533c.435-.372.849-.731,1.27-1.083a.327.327,0,0,1,.2-.058q3.617,0,7.235,0c.038,0,.076.008.124.013v2.282H92.5c-2.332,0-4.664,0-7-.006a.7.7,0,0,1-.4-.15c-.4-.317-.775-.656-1.172-1m3.552-.369c-.565,0-1.129,0-1.694,0-.276,0-.433.136-.436.363s.148.373.426.374q1.694.006,3.387,0c.273,0,.438-.145.441-.363s-.167-.372-.454-.373c-.557,0-1.113,0-1.67,0" transform="translate(999.218 67.938)" fill="#263fc7"/>
      <path id="Trazado_40" data-name="Trazado 40" d="M83.934,136.8c.442-.379.857-.737,1.277-1.089a.329.329,0,0,1,.2-.055q3.629,0,7.258,0a.743.743,0,0,1,.087.012v2.281H92.5c-2.332,0-4.663,0-6.995-.006a.7.7,0,0,1-.4-.147c-.391-.312-.764-.646-1.172-1m3.552.376h0c.573,0,1.145.005,1.718,0a.377.377,0,0,0,.405-.379.37.37,0,0,0-.393-.365q-1.742-.007-3.484,0a.355.355,0,0,0-.376.352.367.367,0,0,0,.364.39,1.757,1.757,0,0,0,.191,0h1.575" transform="translate(999.219 129.477)" fill="#263fc7"/>
      <path id="Trazado_41" data-name="Trazado 41" d="M174.346,41.033c0-.547,0-1.095,0-1.642,0-.3.128-.457.363-.46s.372.153.373.45c0,.946,0,1.893,0,2.839,0,.2-.044.371-.252.437a.4.4,0,0,1-.48-.214c-.381-.558-.767-1.112-1.152-1.667-.048-.069-.1-.136-.182-.247-.008.125-.017.2-.017.274,0,.485,0,.97,0,1.455,0,.27-.156.424-.386.417a.37.37,0,0,1-.359-.419c0-.97,0-1.94,0-2.911a.369.369,0,0,1,.271-.4.383.383,0,0,1,.446.192c.391.57.787,1.137,1.181,1.705.049.07.1.139.15.208l.047-.017" transform="translate(916.537 220.035)" fill="#263fc7"/>
      <path id="Trazado_42" data-name="Trazado 42" d="M126.8,41.445h-.929c0,.268,0,.527,0,.787,0,.307-.14.474-.383.469s-.365-.166-.366-.462c0-.676-.005-1.352,0-2.028a1.213,1.213,0,1,1,2.424.01q.006,1.026,0,2.051c0,.289-.172.458-.42.425a.362.362,0,0,1-.324-.4c-.006-.276,0-.553,0-.848m-.008-.766c0-.212.012-.395,0-.575a.453.453,0,0,0-.446-.412.458.458,0,0,0-.466.417c-.014.186,0,.374,0,.578h.735c.054,0,.107,0,.182-.008" transform="translate(960.66 220.009)" fill="#263fc7"/>
      <path id="Trazado_43" data-name="Trazado 43" d="M46.125,41.166c0,.365,0,.7,0,1.044,0,.294-.134.455-.369.454s-.366-.155-.367-.456q0-1.42,0-2.839c0-.326.124-.447.444-.45.278,0,.557,0,.835,0A1.108,1.108,0,0,1,47.8,40.027a1.12,1.12,0,0,1-1.107,1.138c-.181.007-.362,0-.568,0m.016-1.508v.757c.2,0,.377.008.557,0a.374.374,0,0,0,.365-.365.381.381,0,0,0-.348-.386c-.186-.017-.375,0-.575,0" transform="translate(1035.306 220.046)" fill="#263fc7"/>
      <path id="Trazado_44" data-name="Trazado 44" d="M87.579,41.981c.359,0,.683,0,1.007,0,.3,0,.461.128.466.357s-.158.376-.472.378c-.438,0-.875,0-1.313,0-.3,0-.431-.137-.431-.444q0-1.432,0-2.864c0-.276.135-.435.361-.439s.378.15.379.446c0,.748,0,1.5,0,2.244v.323" transform="translate(996.502 219.998)" fill="#263fc7"/>
      <path id="Trazado_45" data-name="Trazado 45" d="M34.51,270.8c.3-.3.582-.595.868-.88.208-.207.417-.224.582-.056s.137.383-.064.586q-.536.542-1.078,1.078a.387.387,0,0,1-.636.006c-.114-.11-.228-.222-.336-.338a.365.365,0,0,1-.032-.531.378.378,0,0,1,.552,0c.042.036.081.074.144.132" transform="translate(1046.234 3.937)" fill="#263fc7"/>
      <path id="Trazado_46" data-name="Trazado 46" d="M34.524,139.476c.289-.3.569-.587.856-.874.2-.2.427-.222.586-.062s.137.383-.064.586q-.537.543-1.081,1.08a.388.388,0,0,1-.638,0c-.109-.1-.217-.211-.321-.321a.372.372,0,1,1,.515-.532c.041.035.083.069.147.122" transform="translate(1046.228 126.878)" fill="#263fc7"/>
      <path id="Trazado_47" data-name="Trazado 47" d="M34.511,205.1c.3-.3.58-.6.866-.882.209-.209.418-.227.584-.061s.138.385-.061.586q-.537.541-1.078,1.077c-.24.237-.408.234-.652-.005-.108-.106-.217-.21-.319-.321a.367.367,0,0,1-.021-.548.373.373,0,0,1,.534.016c.042.036.08.075.147.139" transform="translate(1046.232 65.454)" fill="#263fc7"/>
    </g>
  </g>
</svg>
